<svg width="15" height="15" viewBox="0 0 37 36" fill="none" xmlns="http://www.w3.org/2000/svg">
  <path d="M10.5805 3.30984L8.01838 0.747754C3.71838 4.0265 0.887552 9.079 0.636719 14.8123H4.22005C4.4888 10.0644 6.92547 5.90775 10.5805 3.30984ZM32.7792 14.8123H36.3625C36.0938 9.079 33.263 4.0265 28.9809 0.747754L26.4367 3.30984C30.0559 5.90775 32.5105 10.0644 32.7792 14.8123ZM29.2496 15.7082C29.2496 10.2078 26.3113 5.60317 21.1871 4.38484V3.1665C21.1871 1.67942 19.9867 0.479004 18.4996 0.479004C17.0126 0.479004 15.8121 1.67942 15.8121 3.1665V4.38484C10.6701 5.60317 7.74964 10.1898 7.74964 15.7082V24.6665L4.1663 28.2498V30.0415H32.833V28.2498L29.2496 24.6665V15.7082ZM18.4996 35.4165C18.7505 35.4165 18.9834 35.3986 19.2163 35.3448C20.3809 35.094 21.3305 34.3057 21.7963 33.2307C21.9755 32.8007 22.0651 32.3348 22.0651 31.8332H14.8984C14.9163 33.804 16.5109 35.4165 18.4996 35.4165Z" fill="#FFFFFF" fill-opacity="0.87"/>
</svg>
